<svg width="116" height="64" viewBox="0 0 116 64" fill="none" xmlns="http://www.w3.org/2000/svg">
<path d="M57.9048 58.8108C54.1039 58.8108 50.2471 58.0174 46.5742 56.3427C39.9767 53.3348 34.958 47.9597 32.4437 41.2123C29.9262 34.4648 30.215 27.1484 33.2512 20.6123C39.5204 7.12072 55.7024 1.2025 69.3175 7.41013C75.915 10.418 80.9337 15.7932 83.448 22.5406C85.9655 29.288 85.6767 36.6045 82.6405 43.1406C78.0617 52.9934 68.1949 58.8076 57.9048 58.8076V58.8108ZM57.9803 9.36444C49.3773 9.36444 41.1321 14.2258 37.3016 22.4626C34.7643 27.9255 34.5247 34.0389 36.6287 39.6807C38.7327 45.3225 42.9275 49.8132 48.4418 52.3301C59.8217 57.5231 73.3482 52.5739 78.5901 41.2968C81.1274 35.8338 81.367 29.7205 79.263 24.0787C77.159 18.4369 72.9642 13.9462 67.4499 11.4293C64.3809 10.0311 61.1543 9.36769 57.9803 9.36769V9.36444Z" fill="url(#paint0_linear_202_143)"/>
<path d="M39.3137 22.5601C38.4274 24.3193 37.7742 26.2314 37.4132 28.2637C36.5138 33.3072 37.5313 38.2466 39.9471 42.3504L54.6586 25.2428L39.3137 22.5601Z" fill="url(#paint1_linear_202_143)"/>
<path d="M56.9989 11.0976C49.7712 11.4651 43.2656 15.5331 39.7732 21.7017L62.2375 25.6298L56.9989 11.0976Z" fill="url(#paint2_linear_202_143)"/>
<path d="M76.8767 41.2025C77.763 39.4433 78.4161 37.5313 78.7772 35.4989C79.6766 30.4587 78.659 25.5225 76.2465 21.4187L61.5318 38.5198L76.8767 41.2025Z" fill="url(#paint3_linear_202_143)"/>
<path d="M75.7345 20.5895C72.6753 15.9005 67.7321 12.4374 61.7452 11.3903C60.4782 11.1692 59.221 11.0651 57.977 11.0716L65.638 32.3219L75.7345 20.5928V20.5895Z" fill="url(#paint4_linear_202_143)"/>
<path d="M40.4625 43.1796C43.5216 47.8654 48.4615 51.3253 54.4452 52.3691C55.7943 52.6032 57.1335 52.7073 58.453 52.6845L50.5589 31.4374L40.4625 43.1796Z" fill="url(#paint5_linear_202_143)"/>
<path d="M59.4344 52.6487C66.5636 52.2032 72.9642 48.1613 76.4205 42.061L54.0481 38.1491L59.4377 52.6487H59.4344Z" fill="url(#paint6_linear_202_143)"/>
<path d="M115.139 31.8862H114.935C55.7713 -35.0189 4.40926 27.6199 1.0383 31.8862H0.861053C0.893877 31.9219 0.923418 31.9577 0.956241 31.9902C0.893877 32.0683 0.861053 32.1106 0.861053 32.1106H1.06456C60.232 99.0157 111.594 36.3736 114.962 32.1106H115.139C115.106 32.0748 115.077 32.039 115.044 32.0065C115.106 31.9285 115.139 31.8862 115.139 31.8862ZM108.377 32.1008H108.22C105.249 35.8598 59.9628 91.0911 7.79663 32.1008H7.61611C7.61611 32.1008 7.64565 32.065 7.69816 31.9935C7.67191 31.961 7.64236 31.9317 7.61611 31.8992H7.77366C10.7442 28.1401 56.0306 -27.0911 108.197 31.8992H108.377C108.377 31.8992 108.348 31.935 108.295 32.0065C108.322 32.039 108.351 32.0683 108.377 32.1008Z" fill="url(#paint7_linear_202_143)"/>
<path fill-rule="evenodd" clip-rule="evenodd" d="M72.7804 2.57708C86.0401 6.06548 100.373 14.7142 115.161 31.3862H116.16L115.699 31.9808L116.276 32.6106H115.203C112.959 35.4114 99.3801 51.5847 79.1153 59.2662C68.7081 63.211 56.5282 64.9196 43.2215 61.4192C29.9614 57.9311 15.6281 49.2825 0.839498 32.6106H-0.160218L0.301507 32.0159L-0.276367 31.3862H0.797238C3.04242 28.5843 16.622 12.4106 36.8872 4.72935C47.2944 0.78467 59.474 -0.923588 72.7804 2.57708ZM1.61036 31.9726C16.2915 48.5157 30.4548 57.0268 43.4759 60.4521C56.5456 63.8901 68.5106 62.2165 78.7608 58.3311C98.6326 50.7986 112.025 34.9662 114.373 32.0462L114.373 32.0454L114.39 32.0241C99.7094 15.481 85.5466 6.96968 72.526 3.54418C59.4567 0.105879 47.4919 1.77926 37.2416 5.66443C17.3696 13.1966 3.97675 29.0294 1.62659 31.9505L1.62739 31.9513L1.61036 31.9726ZM8.35308 31.9748C10.4628 29.3563 22.2485 15.456 39.7141 8.83571C48.7424 5.41351 59.2792 3.93991 70.7886 6.96758C82.2462 9.98163 94.7134 17.4687 107.64 32.0252C105.531 34.6437 93.7449 48.544 76.2794 55.1643C67.251 58.5865 56.7142 60.0601 45.2048 57.0324C33.7472 54.0184 21.28 46.5313 8.35308 31.9748ZM108.461 32.6008C106.427 35.1349 94.4637 49.3409 76.6338 56.0993C67.4485 59.5811 56.6969 61.0895 44.9504 57.9995C33.2507 54.9218 20.6099 47.2941 7.5716 32.6008H6.55472L7.0529 31.9976L6.56969 31.3992H7.53274C9.56684 28.865 21.5298 14.6591 39.3596 7.90063C48.545 4.41893 59.2966 2.91045 71.043 6.00048C82.7427 9.07823 95.3835 16.7059 108.422 31.3992H109.439L108.941 32.0024L109.424 32.6008H108.461Z" fill="url(#paint8_linear_202_143)"/>
<defs>
<linearGradient id="paint0_linear_202_143" x1="57.9458" y1="4.94426" x2="57.9458" y2="58.8108" gradientUnits="userSpaceOnUse">
<stop stop-color="#05C8DA"/>
<stop offset="1" stop-color="#3E4FD3"/>
</linearGradient>
<linearGradient id="paint1_linear_202_143" x1="45.8741" y1="22.5601" x2="45.8741" y2="42.3504" gradientUnits="userSpaceOnUse">
<stop stop-color="#05C8DA"/>
<stop offset="1" stop-color="#3E4FD3"/>
</linearGradient>
<linearGradient id="paint2_linear_202_143" x1="51.0053" y1="11.0976" x2="51.0053" y2="25.6298" gradientUnits="userSpaceOnUse">
<stop stop-color="#05C8DA"/>
<stop offset="1" stop-color="#3E4FD3"/>
</linearGradient>
<linearGradient id="paint3_linear_202_143" x1="70.3163" y1="21.4187" x2="70.3163" y2="41.2025" gradientUnits="userSpaceOnUse">
<stop stop-color="#05C8DA"/>
<stop offset="1" stop-color="#3E4FD3"/>
</linearGradient>
<linearGradient id="paint4_linear_202_143" x1="66.8558" y1="11.0713" x2="66.8558" y2="32.3219" gradientUnits="userSpaceOnUse">
<stop stop-color="#05C8DA"/>
<stop offset="1" stop-color="#3E4FD3"/>
</linearGradient>
<linearGradient id="paint5_linear_202_143" x1="49.4577" y1="31.4374" x2="49.4577" y2="52.6876" gradientUnits="userSpaceOnUse">
<stop stop-color="#05C8DA"/>
<stop offset="1" stop-color="#3E4FD3"/>
</linearGradient>
<linearGradient id="paint6_linear_202_143" x1="65.2343" y1="38.1491" x2="65.2343" y2="52.6487" gradientUnits="userSpaceOnUse">
<stop stop-color="#05C8DA"/>
<stop offset="1" stop-color="#3E4FD3"/>
</linearGradient>
<linearGradient id="paint7_linear_202_143" x1="58" y1="1.1796" x2="58" y2="62.8164" gradientUnits="userSpaceOnUse">
<stop stop-color="#05C8DA"/>
<stop offset="1" stop-color="#3E4FD3"/>
</linearGradient>
<linearGradient id="paint8_linear_202_143" x1="58" y1="1.1796" x2="58" y2="62.8164" gradientUnits="userSpaceOnUse">
<stop stop-color="#05C8DA"/>
<stop offset="1" stop-color="#3E4FD3"/>
</linearGradient>
</defs>
</svg>
