<svg style="width:0; height:0; visibility: hidden;" xmlns="http://www.w3.org/2000/svg">
	
	<!-- icon notification -->
	<symbol id="svg-notify" viewBox="0 0 25 27">
		<g>
			
			<path
				d="M20.6552 10.7322V9.88084C20.6552 5.20611 17.004 1.4165 12.5 1.4165C7.99601 1.4165 4.3448 5.20611 4.3448 9.88084V10.7322C4.3448 11.754 4.05341 12.7529 3.50734 13.603L2.16918 15.6863C0.946912 17.5893 1.88001 20.1758 4.00585 20.7775C9.56706 22.3517 15.4329 22.3517 20.9941 20.7775C23.12 20.1758 24.0531 17.5893 22.8308 15.6863L21.4927 13.603C20.9466 12.7529 20.6552 11.754 20.6552 10.7322Z"
				stroke="currentColor" stroke-width="2" />
			<path
				d="M7.0625 21.9585C7.85399 24.0704 9.98963 25.5835 12.5 25.5835C15.0104 25.5835 17.146 24.0704 17.9375 21.9585"
				stroke="currentColor" stroke-width="2" stroke-linecap="round" />
			
		</g>
	</symbol>

	<!-- arrow-chevron -->
	<symbol id="svg-chevron" viewBox="0 0 13 7">
		<g>
			<path d="M12.0413 1.125L6.49967 5.875L0.958008 1.125" stroke="currentColor"
					stroke-width="1.5" stroke-linecap="round" stroke-linejoin="round" />
			
		</g>
	</symbol>
	<!-- calendare icon -->
	<symbol id="svg-date"  viewBox="0 0 17 17">
		<g>
			
			<path
				d="M1.41699 8.50016C1.41699 5.82887 1.41699 4.49322 2.24686 3.66336C3.07672 2.8335 4.41237 2.8335 7.08366 2.8335H9.91699C12.5883 2.8335 13.9239 2.8335 14.7538 3.66336C15.5837 4.49322 15.5837 5.82887 15.5837 8.50016V9.91683C15.5837 12.5881 15.5837 13.9238 14.7538 14.7536C13.9239 15.5835 12.5883 15.5835 9.91699 15.5835H7.08366C4.41237 15.5835 3.07672 15.5835 2.24686 14.7536C1.41699 13.9238 1.41699 12.5881 1.41699 9.91683V8.50016Z"
				stroke="#007AFF" stroke-width="1.5" />
			<path d="M4.95801 2.8335V1.771" stroke="#007AFF" stroke-width="1.5"
				stroke-linecap="round" />
			<path d="M12.042 2.8335V1.771" stroke="#007AFF" stroke-width="1.5"
				stroke-linecap="round" />
			<path d="M1.77051 6.375H15.2288" stroke="#007AFF" stroke-width="1.5"
				stroke-linecap="round" />
			
		</g>
	</symbol>

	<!-- task icon -->
	<symbol id="svg-task" viewBox="0 0 24 20">
		<g>

			<path
				d="M20.5705 5.26728C21.9332 5.26728 23.0005 4.2048 23.0005 2.84825C23.0005 1.55337 21.9105 0.5 20.5705 0.5C19.2308 0.5 18.1406 1.56393 18.1406 2.87184C18.1408 4.19259 19.2308 5.26728 20.5705 5.26728Z"
				fill="currentColor" stroke="currentColor" stroke-width="0.25" stroke-miterlimit="10" />
			<path
				d="M18.5176 19.4999C20.7709 19.4999 22.5975 17.6814 22.5975 15.4385V6.40479C20.3441 6.40479 18.5176 8.22325 18.5176 10.4662V19.4999Z"
				fill="currentColor" stroke="currentColor" stroke-width="0.25" stroke-miterlimit="10" />
			<path fill-rule="evenodd" clip-rule="evenodd"
				d="M1 8.96484C1 3.66446 4.02878 0.5 9.10175 0.5C14.1895 0.5 17.227 3.66446 17.227 8.96505V15.3914C17.227 17.6604 15.3793 19.5 13.0997 19.5V16.3231C13.0997 15.4012 12.3488 14.6537 11.4227 14.6537H6.78085C5.85469 14.6537 5.10379 15.4012 5.10379 16.3231V19.5C2.83735 19.5 1 17.671 1 15.4148V8.96484ZM4.58862 7.9599L8.68804 3.7549C8.99551 3.4393 9.5325 3.65804 9.52979 4.0976L9.51129 7.04601C9.50942 7.3167 9.72937 7.53689 10.0013 7.53689H13.2955C13.7275 7.53689 13.9483 8.05261 13.6492 8.36262L9.65058 12.508C9.34477 12.8249 8.80695 12.6094 8.80695 12.1701V9.27526C8.80695 9.00582 8.58763 8.78749 8.31695 8.78749H4.94037C4.50713 8.78749 4.28697 8.26929 4.58862 7.9599Z"
				fill="currentColor" />
			<path
				d="M13.0997 19.5H12.9747V19.625H13.0997V19.5ZM5.10379 19.5V19.625H5.22879V19.5H5.10379ZM8.68804 3.7549L8.77755 3.84215L8.77757 3.84213L8.68804 3.7549ZM4.58862 7.9599L4.67812 8.04716L4.67813 8.04715L4.58862 7.9599ZM9.52979 4.0976L9.65479 4.09839L9.65479 4.09837L9.52979 4.0976ZM9.51129 7.04601L9.63629 7.04687V7.04679L9.51129 7.04601ZM13.6492 8.36262L13.5592 8.27582L13.5592 8.27584L13.6492 8.36262ZM9.65058 12.508L9.74052 12.5948L9.74055 12.5948L9.65058 12.508ZM9.10175 0.375C6.53876 0.375 4.47789 1.17505 3.05821 2.65835C1.6392 4.14094 0.875 6.29125 0.875 8.96484H1.125C1.125 6.33805 1.87519 4.25594 3.23881 2.83121C4.60177 1.40718 6.59177 0.625 9.10175 0.625V0.375ZM17.352 8.96505C17.352 6.29126 16.5856 4.14085 15.1625 2.65824C13.7387 1.17498 11.672 0.375 9.10175 0.375V0.625C11.6192 0.625 13.6151 1.40725 14.9821 2.83136C16.3497 4.25613 17.102 6.33825 17.102 8.96505H17.352ZM17.352 15.3914V8.96505H17.102V15.3914H17.352ZM13.0997 19.625C15.4478 19.625 17.352 17.73 17.352 15.3914H17.102C17.102 17.5909 15.3108 19.375 13.0997 19.375V19.625ZM12.9747 16.3231V19.5H13.2247V16.3231H12.9747ZM11.4227 14.7787C12.2803 14.7787 12.9747 15.4707 12.9747 16.3231H13.2247C13.2247 15.3316 12.4173 14.5287 11.4227 14.5287V14.7787ZM6.78085 14.7787H11.4227V14.5287H6.78085V14.7787ZM5.22879 16.3231C5.22879 15.4707 5.92319 14.7787 6.78085 14.7787V14.5287C5.78619 14.5287 4.97879 15.3316 4.97879 16.3231H5.22879ZM5.22879 19.5V16.3231H4.97879V19.5H5.22879ZM0.875 15.4148C0.875 17.7406 2.76885 19.625 5.10379 19.625V19.375C2.90585 19.375 1.125 17.6014 1.125 15.4148H0.875ZM0.875 8.96484V15.4148H1.125V8.96484H0.875ZM8.59854 3.66764L4.49912 7.87264L4.67813 8.04715L8.77755 3.84215L8.59854 3.66764ZM9.65479 4.09837C9.65819 3.54516 8.98371 3.27229 8.59851 3.66767L8.77757 3.84213C9.00731 3.60631 9.4068 3.77093 9.4048 4.09684L9.65479 4.09837ZM9.63629 7.04679L9.65479 4.09839L9.4048 4.09682L9.3863 7.04522L9.63629 7.04679ZM10.0013 7.41189C9.79811 7.41189 9.6349 7.24756 9.63629 7.04687L9.3863 7.04515C9.38394 7.38584 9.66063 7.66189 10.0013 7.66189V7.41189ZM13.2955 7.41189H10.0013V7.66189H13.2955V7.41189ZM13.7391 8.44942C14.1157 8.05913 13.8366 7.41189 13.2955 7.41189V7.66189C13.6185 7.66189 13.7809 8.04609 13.5592 8.27582L13.7391 8.44942ZM9.74055 12.5948L13.7391 8.4494L13.5592 8.27584L9.56061 12.4212L9.74055 12.5948ZM8.68195 12.1701C8.68195 12.7231 9.3575 12.9917 9.74052 12.5948L9.56064 12.4212C9.33204 12.6581 8.93195 12.4957 8.93195 12.1701H8.68195ZM8.68195 9.27526V12.1701H8.93195V9.27526H8.68195ZM8.31695 8.91249C8.51913 8.91249 8.68195 9.07539 8.68195 9.27526H8.93195C8.93195 8.93624 8.65613 8.66249 8.31695 8.66249V8.91249ZM4.94037 8.91249H8.31695V8.66249H4.94037V8.91249ZM4.49912 7.87263C4.11942 8.26208 4.39773 8.91249 4.94037 8.91249V8.66249C4.61652 8.66249 4.45452 8.27649 4.67812 8.04716L4.49912 7.87263Z"
				fill="currentColor" />
		</g>
	</symbol>
</svg>