<svg style="width:0; height:0; visibility: hidden;" xmlns="http://www.w3.org/2000/svg">
	
	<!-- icon notification -->
	<symbol id="svg-notify" viewBox="0 0 25 27">
		<g>
			
			<path
				d="M20.6552 10.7322V9.88084C20.6552 5.20611 17.004 1.4165 12.5 1.4165C7.99601 1.4165 4.3448 5.20611 4.3448 9.88084V10.7322C4.3448 11.754 4.05341 12.7529 3.50734 13.603L2.16918 15.6863C0.946912 17.5893 1.88001 20.1758 4.00585 20.7775C9.56706 22.3517 15.4329 22.3517 20.9941 20.7775C23.12 20.1758 24.0531 17.5893 22.8308 15.6863L21.4927 13.603C20.9466 12.7529 20.6552 11.754 20.6552 10.7322Z"
				stroke="currentColor" stroke-width="2" />
			<path
				d="M7.0625 21.9585C7.85399 24.0704 9.98963 25.5835 12.5 25.5835C15.0104 25.5835 17.146 24.0704 17.9375 21.9585"
				stroke="currentColor" stroke-width="2" stroke-linecap="round" />
			
		</g>
	</symbol>

	<!-- arrow-chevron -->
	<symbol id="svg-chevron" viewBox="0 0 13 7">
		<g>
			<path d="M12.0413 1.125L6.49967 5.875L0.958008 1.125" stroke="currentColor"
					stroke-width="1.5" stroke-linecap="round" stroke-linejoin="round" />
			
		</g>
	</symbol>
	<!-- calendare icon -->
	<symbol id="svg-date"  viewBox="0 0 17 17">
		<g>
			
			<path
				d="M1.41699 8.50016C1.41699 5.82887 1.41699 4.49322 2.24686 3.66336C3.07672 2.8335 4.41237 2.8335 7.08366 2.8335H9.91699C12.5883 2.8335 13.9239 2.8335 14.7538 3.66336C15.5837 4.49322 15.5837 5.82887 15.5837 8.50016V9.91683C15.5837 12.5881 15.5837 13.9238 14.7538 14.7536C13.9239 15.5835 12.5883 15.5835 9.91699 15.5835H7.08366C4.41237 15.5835 3.07672 15.5835 2.24686 14.7536C1.41699 13.9238 1.41699 12.5881 1.41699 9.91683V8.50016Z"
				stroke="#007AFF" stroke-width="1.5" />
			<path d="M4.95801 2.8335V1.771" stroke="#007AFF" stroke-width="1.5"
				stroke-linecap="round" />
			<path d="M12.042 2.8335V1.771" stroke="#007AFF" stroke-width="1.5"
				stroke-linecap="round" />
			<path d="M1.77051 6.375H15.2288" stroke="#007AFF" stroke-width="1.5"
				stroke-linecap="round" />
			
		</g>
	</symbol>

	<!-- task icon -->
	<symbol id="svg-task" viewBox="0 0 24 20">
		<g>

			<path
				d="M20.5705 5.26728C21.9332 5.26728 23.0005 4.2048 23.0005 2.84825C23.0005 1.55337 21.9105 0.5 20.5705 0.5C19.2308 0.5 18.1406 1.56393 18.1406 2.87184C18.1408 4.19259 19.2308 5.26728 20.5705 5.26728Z"
				fill="currentColor" stroke="currentColor" stroke-width="0.25" stroke-miterlimit="10" />
			<path
				d="M18.5176 19.4999C20.7709 19.4999 22.5975 17.6814 22.5975 15.4385V6.40479C20.3441 6.40479 18.5176 8.22325 18.5176 10.4662V19.4999Z"
				fill="currentColor" stroke="currentColor" stroke-width="0.25" stroke-miterlimit="10" />
			<path fill-rule="evenodd" clip-rule="evenodd"
				d="M1 8.96484C1 3.66446 4.02878 0.5 9.10175 0.5C14.1895 0.5 17.227 3.66446 17.227 8.96505V15.3914C17.227 17.6604 15.3793 19.5 13.0997 19.5V16.3231C13.0997 15.4012 12.3488 14.6537 11.4227 14.6537H6.78085C5.85469 14.6537 5.10379 15.4012 5.10379 16.3231V19.5C2.83735 19.5 1 17.671 1 15.4148V8.96484ZM4.58862 7.9599L8.68804 3.7549C8.99551 3.4393 9.5325 3.65804 9.52979 4.0976L9.51129 7.04601C9.50942 7.3167 9.72937 7.53689 10.0013 7.53689H13.2955C13.7275 7.53689 13.9483 8.05261 13.6492 8.36262L9.65058 12.508C9.34477 12.8249 8.80695 12.6094 8.80695 12.1701V9.27526C8.80695 9.00582 8.58763 8.78749 8.31695 8.78749H4.94037C4.50713 8.78749 4.28697 8.26929 4.58862 7.9599Z"
				fill="currentColor" />
			<path
				d="M13.0997 19.5H12.9747V19.625H13.0997V19.5ZM5.10379 19.5V19.625H5.22879V19.5H5.10379ZM8.68804 3.7549L8.77755 3.84215L8.77757 3.84213L8.68804 3.7549ZM4.58862 7.9599L4.67812 8.04716L4.67813 8.04715L4.58862 7.9599ZM9.52979 4.0976L9.65479 4.09839L9.65479 4.09837L9.52979 4.0976ZM9.51129 7.04601L9.63629 7.04687V7.04679L9.51129 7.04601ZM13.6492 8.36262L13.5592 8.27582L13.5592 8.27584L13.6492 8.36262ZM9.65058 12.508L9.74052 12.5948L9.74055 12.5948L9.65058 12.508ZM9.10175 0.375C6.53876 0.375 4.47789 1.17505 3.05821 2.65835C1.6392 4.14094 0.875 6.29125 0.875 8.96484H1.125C1.125 6.33805 1.87519 4.25594 3.23881 2.83121C4.60177 1.40718 6.59177 0.625 9.10175 0.625V0.375ZM17.352 8.96505C17.352 6.29126 16.5856 4.14085 15.1625 2.65824C13.7387 1.17498 11.672 0.375 9.10175 0.375V0.625C11.6192 0.625 13.6151 1.40725 14.9821 2.83136C16.3497 4.25613 17.102 6.33825 17.102 8.96505H17.352ZM17.352 15.3914V8.96505H17.102V15.3914H17.352ZM13.0997 19.625C15.4478 19.625 17.352 17.73 17.352 15.3914H17.102C17.102 17.5909 15.3108 19.375 13.0997 19.375V19.625ZM12.9747 16.3231V19.5H13.2247V16.3231H12.9747ZM11.4227 14.7787C12.2803 14.7787 12.9747 15.4707 12.9747 16.3231H13.2247C13.2247 15.3316 12.4173 14.5287 11.4227 14.5287V14.7787ZM6.78085 14.7787H11.4227V14.5287H6.78085V14.7787ZM5.22879 16.3231C5.22879 15.4707 5.92319 14.7787 6.78085 14.7787V14.5287C5.78619 14.5287 4.97879 15.3316 4.97879 16.3231H5.22879ZM5.22879 19.5V16.3231H4.97879V19.5H5.22879ZM0.875 15.4148C0.875 17.7406 2.76885 19.625 5.10379 19.625V19.375C2.90585 19.375 1.125 17.6014 1.125 15.4148H0.875ZM0.875 8.96484V15.4148H1.125V8.96484H0.875ZM8.59854 3.66764L4.49912 7.87264L4.67813 8.04715L8.77755 3.84215L8.59854 3.66764ZM9.65479 4.09837C9.65819 3.54516 8.98371 3.27229 8.59851 3.66767L8.77757 3.84213C9.00731 3.60631 9.4068 3.77093 9.4048 4.09684L9.65479 4.09837ZM9.63629 7.04679L9.65479 4.09839L9.4048 4.09682L9.3863 7.04522L9.63629 7.04679ZM10.0013 7.41189C9.79811 7.41189 9.6349 7.24756 9.63629 7.04687L9.3863 7.04515C9.38394 7.38584 9.66063 7.66189 10.0013 7.66189V7.41189ZM13.2955 7.41189H10.0013V7.66189H13.2955V7.41189ZM13.7391 8.44942C14.1157 8.05913 13.8366 7.41189 13.2955 7.41189V7.66189C13.6185 7.66189 13.7809 8.04609 13.5592 8.27582L13.7391 8.44942ZM9.74055 12.5948L13.7391 8.4494L13.5592 8.27584L9.56061 12.4212L9.74055 12.5948ZM8.68195 12.1701C8.68195 12.7231 9.3575 12.9917 9.74052 12.5948L9.56064 12.4212C9.33204 12.6581 8.93195 12.4957 8.93195 12.1701H8.68195ZM8.68195 9.27526V12.1701H8.93195V9.27526H8.68195ZM8.31695 8.91249C8.51913 8.91249 8.68195 9.07539 8.68195 9.27526H8.93195C8.93195 8.93624 8.65613 8.66249 8.31695 8.66249V8.91249ZM4.94037 8.91249H8.31695V8.66249H4.94037V8.91249ZM4.49912 7.87263C4.11942 8.26208 4.39773 8.91249 4.94037 8.91249V8.66249C4.61652 8.66249 4.45452 8.27649 4.67812 8.04716L4.49912 7.87263Z"
				fill="currentColor" />
		</g>
	</symbol>

	<symbol id="svg-settings" viewBox="0 0 24 24">
		<g>
			
				<circle cx="12" cy="12" r="3" stroke="currentColor" stroke-width="1.5" />
				<path
					d="M13.7654 2.15224C13.3978 2 12.9319 2 12 2C11.0681 2 10.6022 2 10.2346 2.15224C9.74457 2.35523 9.35522 2.74458 9.15223 3.23463C9.05957 3.45834 9.0233 3.7185 9.00911 4.09799C8.98826 4.65568 8.70226 5.17189 8.21894 5.45093C7.73564 5.72996 7.14559 5.71954 6.65219 5.45876C6.31645 5.2813 6.07301 5.18262 5.83294 5.15102C5.30704 5.08178 4.77518 5.22429 4.35436 5.5472C4.03874 5.78938 3.80577 6.1929 3.33983 6.99993C2.87389 7.80697 2.64092 8.21048 2.58899 8.60491C2.51976 9.1308 2.66227 9.66266 2.98518 10.0835C3.13256 10.2756 3.3397 10.437 3.66119 10.639C4.1338 10.936 4.43789 11.4419 4.43786 12C4.43783 12.5581 4.13375 13.0639 3.66118 13.3608C3.33965 13.5629 3.13248 13.7244 2.98508 13.9165C2.66217 14.3373 2.51966 14.8691 2.5889 15.395C2.64082 15.7894 2.87379 16.193 3.33973 17C3.80568 17.807 4.03865 18.2106 4.35426 18.4527C4.77508 18.7756 5.30694 18.9181 5.83284 18.8489C6.07289 18.8173 6.31632 18.7186 6.65204 18.5412C7.14547 18.2804 7.73556 18.27 8.2189 18.549C8.70224 18.8281 8.98826 19.3443 9.00911 19.9021C9.02331 20.2815 9.05957 20.5417 9.15223 20.7654C9.35522 21.2554 9.74457 21.6448 10.2346 21.8478C10.6022 22 11.0681 22 12 22C12.9319 22 13.3978 22 13.7654 21.8478C14.2554 21.6448 14.6448 21.2554 14.8477 20.7654C14.9404 20.5417 14.9767 20.2815 14.9909 19.902C15.0117 19.3443 15.2977 18.8281 15.781 18.549C16.2643 18.2699 16.8544 18.2804 17.3479 18.5412C17.6836 18.7186 17.927 18.8172 18.167 18.8488C18.6929 18.9181 19.2248 18.7756 19.6456 18.4527C19.9612 18.2105 20.1942 17.807 20.6601 16.9999C21.1261 16.1929 21.3591 15.7894 21.411 15.395C21.4802 14.8691 21.3377 14.3372 21.0148 13.9164C20.8674 13.7243 20.6602 13.5628 20.3387 13.3608C19.8662 13.0639 19.5621 12.558 19.5621 11.9999C19.5621 11.4418 19.8662 10.9361 20.3387 10.6392C20.6603 10.4371 20.8675 10.2757 21.0149 10.0835C21.3378 9.66273 21.4803 9.13087 21.4111 8.60497C21.3592 8.21055 21.1262 7.80703 20.6602 7C20.1943 6.19297 19.9613 5.78945 19.6457 5.54727C19.2249 5.22436 18.693 5.08185 18.1671 5.15109C17.9271 5.18269 17.6837 5.28136 17.3479 5.4588C16.8545 5.71959 16.2644 5.73002 15.7811 5.45096C15.2977 5.17191 15.0117 4.65566 14.9909 4.09794C14.9767 3.71848 14.9404 3.45833 14.8477 3.23463C14.6448 2.74458 14.2554 2.35523 13.7654 2.15224Z"
					stroke="currentColor" stroke-width="1.5" />
			
		</g>
	</symbol>

	<symbol id="svg-reload"  viewBox=" 0 0 16 16">
		<g>
			<path
				d="M2.45288 7.55555H1.85288V7.55556L2.45288 7.55555ZM2.45288 8.66667L2.03029 9.09259C2.26422 9.32469 2.64155 9.32469 2.87548 9.09259L2.45288 8.66667ZM3.99535 7.98148C4.23058 7.74809 4.23208 7.36819 3.99868 7.13296C3.76529 6.89773 3.3854 6.89624 3.15016 7.12963L3.99535 7.98148ZM1.7556 7.12963C1.52037 6.89624 1.14047 6.89773 0.90708 7.13296C0.673688 7.36819 0.67518 7.74809 0.910414 7.98148L1.7556 7.12963ZM12.3249 4.9809C12.4984 5.26319 12.8679 5.35135 13.1502 5.1778C13.4325 5.00426 13.5207 4.63473 13.3471 4.35243L12.3249 4.9809ZM8.05225 1.4C4.63289 1.4 1.85288 4.1515 1.85288 7.55555H3.05288C3.05288 4.82311 5.28672 2.6 8.05225 2.6V1.4ZM1.85288 7.55556L1.85288 8.66667L3.05288 8.66667L3.05288 7.55555L1.85288 7.55556ZM2.87548 9.09259L3.99535 7.98148L3.15016 7.12963L2.03029 8.24074L2.87548 9.09259ZM2.87548 8.24074L1.7556 7.12963L0.910414 7.98148L2.03029 9.09259L2.87548 8.24074ZM13.3471 4.35243C12.2587 2.5819 10.2938 1.4 8.05225 1.4V2.6C9.86268 2.6 11.4472 3.55324 12.3249 4.9809L13.3471 4.35243Z"
				fill="currentColor" />
			<path
				d="M13.5429 7.33325L13.9647 6.90652C13.731 6.6755 13.3549 6.6755 13.1211 6.90652L13.5429 7.33325ZM11.997 8.01763C11.7613 8.25057 11.7591 8.63047 11.992 8.86614C12.225 9.10182 12.6049 9.10404 12.8405 8.8711L11.997 8.01763ZM14.2453 8.8711C14.481 9.10404 14.8609 9.10182 15.0938 8.86614C15.3268 8.63047 15.3245 8.25057 15.0889 8.01763L14.2453 8.8711ZM3.63072 11.0181C3.45669 10.7362 3.08701 10.6486 2.80501 10.8227C2.52302 10.9967 2.43549 11.3664 2.60952 11.6484L3.63072 11.0181ZM7.92215 14.5999C11.3512 14.5999 14.1429 11.8506 14.1429 8.44436H12.9429C12.9429 11.1747 10.7017 13.3999 7.92215 13.3999V14.5999ZM14.1429 8.44436V7.33325H12.9429V8.44436H14.1429ZM13.1211 6.90652L11.997 8.01763L12.8405 8.8711L13.9647 7.75998L13.1211 6.90652ZM13.1211 7.75998L14.2453 8.8711L15.0889 8.01763L13.9647 6.90652L13.1211 7.75998ZM2.60952 11.6484C3.70224 13.419 5.67394 14.5999 7.92215 14.5999V13.3999C6.10289 13.3999 4.51167 12.4457 3.63072 11.0181L2.60952 11.6484Z"
				fill="currentColor" />
		</g>
	</symbol>
	<symbol id="svg-cross"  viewBox="0 0 24 25">
		<g>
			
				<path d="M18 6.5L6 18.5" stroke="currentColor" stroke-width="1.5" stroke-linecap="round"
					stroke-linejoin="round" />
				<path d="M6 6.5L18 18.5" stroke="currentColor" stroke-width="1.5" stroke-linecap="round"
					stroke-linejoin="round" />
			
		</g>
	</symbol>
</svg>